# xmcd CD database file
#
# Track frame offsets:
#	183
#	11788
#	24725
#	38383
#	49923
#	61275
#	76908
#	87590
#	102753
#	115975
#
# Disc length: 1699 seconds
#
# Revision: 2
# Processed by: cddbd v1.5.2PL0 Copyright (c) Steve Scherf et al.
# Submitted via: jetAudio 7
#
DISCID=7706a10a
DTITLE=Chet Atkins - Picks on The Hits
DYEAR=1972
DGENRE=country
TTITLE0=The Masterpiece
TTITLE1=After Midnight
TTITLE2=Song Sung Blue
TTITLE3=An Old Fashioned Love Song
TTITLE4=Amazing Grace
TTITLE5=Sweet Caroline
TTITLE6=I'd Like To Teach The World To Sing (In Perfect Harmony)
TTITLE7=Vincent
TTITLE8=Love Theme From The Goodfather
TTITLE9=Me And Julio Down By The Schoolyard
EXTD=
EXTT0=
EXTT1=
EXTT2=
EXTT3=
EXTT4=
EXTT5=
EXTT6=
EXTT7=
EXTT8=
EXTT9=
PLAYORDER=
